<?xml version="1.0" encoding="iso-8859-1"?>
<!-- Uploaded to: SVG Repo, www.svgrepo.com, Generator: SVG Repo Mixer Tools -->
<svg fill="#000000" version="1.1" id="Layer_1" xmlns="http://www.w3.org/2000/svg" xmlns:xlink="http://www.w3.org/1999/xlink" 
	 viewBox="0 0 511.998 511.998" xml:space="preserve">
<g>
	<g>
		<path d="M255.999,0c-29.927,0-59.706,7.217-86.117,20.87l7.585,14.673c24.422-12.623,50.844-19.025,78.532-19.025
			c94.451,0,171.292,76.841,171.292,171.292c0,67.956-40.466,129.13-103.216,156.33H187.923
			c-62.75-27.2-103.216-88.374-103.216-156.33c0-54.971,26.682-106.985,71.375-139.142l-9.648-13.408
			c-48.995,35.252-78.247,92.28-78.247,152.549c0,73.311,42.888,139.438,109.726,169.978v82.67h24.938v39.899h44.888v31.641h16.518
			v-31.641h44.888v-39.899h24.938v-48.16h-16.518v31.641H194.433v-63.283h123.133v16.676h16.518v-19.544
			c66.838-30.54,109.726-96.667,109.726-169.978C443.809,84.252,359.558,0,255.999,0z M219.37,440.459h73.257v23.381H219.37V440.459
			z"/>
	</g>
</g>
<g>
	<g>
		<rect x="216.102" y="384.039" width="79.805" height="16.518"/>
	</g>
</g>
<g>
	<g>
		<path d="M113.076,187.81h16.518c0-69.699,56.705-126.404,126.404-126.404V44.888C177.191,44.888,113.076,109.002,113.076,187.81z"
			/>
	</g>
</g>
<g>
	<g>
		<path d="M382.403,187.81c0,69.699-56.705,126.404-126.404,126.404v16.518c78.807,0,142.923-64.115,142.923-142.923H382.403z"/>
	</g>
</g>
<g>
	<g>
		<rect x="166.228" y="259.348" width="24.938" height="16.518"/>
	</g>
</g>
<g>
	<g>
		<rect x="191.159" y="239.405" width="24.938" height="16.518"/>
	</g>
</g>
<g>
	<g>
		<rect x="270.964" y="44.888" width="24.938" height="16.518"/>
	</g>
</g>
</svg>